<svg width="64" height="64" viewBox="0 0 64 64" fill="none" xmlns="http://www.w3.org/2000/svg">
<path d="M5 60H19C19.2652 60 19.5196 59.8946 19.7071 59.7071C19.8946 59.5196 20 59.2652 20 59C20 56.8783 19.1571 54.8434 17.6569 53.3431C16.1566 51.8429 14.1217 51 12 51C9.87827 51 7.84344 51.8429 6.34315 53.3431C4.84285 54.8434 4 56.8783 4 59C4 59.2652 4.10536 59.5196 4.29289 59.7071C4.48043 59.8946 4.73478 60 5 60Z" fill="black"/>
<path d="M12 50C14.7614 50 17 47.7614 17 45C17 42.2386 14.7614 40 12 40C9.23858 40 7 42.2386 7 45C7 47.7614 9.23858 50 12 50Z" fill="black"/>
<path d="M24 59C24 59.2652 24.1054 59.5196 24.2929 59.7071C24.4804 59.8946 24.7348 60 25 60H39C39.2652 60 39.5196 59.8946 39.7071 59.7071C39.8946 59.5196 40 59.2652 40 59C40 56.8783 39.1571 54.8434 37.6569 53.3431C36.1566 51.8429 34.1217 51 32 51C29.8783 51 27.8434 51.8429 26.3431 53.3431C24.8429 54.8434 24 56.8783 24 59V59Z" fill="black"/>
<path d="M32 50C34.7614 50 37 47.7614 37 45C37 42.2386 34.7614 40 32 40C29.2386 40 27 42.2386 27 45C27 47.7614 29.2386 50 32 50Z" fill="black"/>
<path d="M52 51C49.8783 51 47.8434 51.8429 46.3431 53.3431C44.8429 54.8434 44 56.8783 44 59C44 59.2652 44.1054 59.5196 44.2929 59.7071C44.4804 59.8946 44.7348 60 45 60H59C59.2652 60 59.5196 59.8946 59.7071 59.7071C59.8946 59.5196 60 59.2652 60 59C60 56.8783 59.1571 54.8434 57.6569 53.3431C56.1566 51.8429 54.1217 51 52 51Z" fill="black"/>
<path d="M52 50C54.7614 50 57 47.7614 57 45C57 42.2386 54.7614 40 52 40C49.2386 40 47 42.2386 47 45C47 47.7614 49.2386 50 52 50Z" fill="black"/>
<path d="M13 14C15.7614 14 18 11.7614 18 9C18 6.23858 15.7614 4 13 4C10.2386 4 8 6.23858 8 9C8 11.7614 10.2386 14 13 14Z" fill="black"/>
<path d="M5 27H8V37C8 37.2652 8.10536 37.5196 8.29289 37.7071C8.48043 37.8946 8.73478 38 9 38H12V28C12 27.7348 12.1054 27.4804 12.2929 27.2929C12.4804 27.1054 12.7348 27 13 27C13.2652 27 13.5196 27.1054 13.7071 27.2929C13.8946 27.4804 14 27.7348 14 28V38H17C17.2652 38 17.5196 37.8946 17.7071 37.7071C17.8946 37.5196 18 37.2652 18 37V21H25C25.2652 21 25.5196 20.8946 25.7071 20.7071C25.8946 20.5196 26 20.2652 26 20V16C26 15.7348 25.8946 15.4804 25.7071 15.2929C25.5196 15.1054 25.2652 15 25 15H8C6.93913 15 5.92172 15.4214 5.17157 16.1716C4.42143 16.9217 4 17.9391 4 19V26C4 26.2652 4.10536 26.5196 4.29289 26.7071C4.48043 26.8946 4.73478 27 5 27Z" fill="black"/>
<path d="M59 4H21C20.7348 4 20.4804 4.10536 20.2929 4.29289C20.1054 4.48043 20 4.73478 20 5V14H25C25.5304 14 26.0391 14.2107 26.4142 14.5858C26.7893 14.9609 27 15.4696 27 16V20C27 20.5304 26.7893 21.0391 26.4142 21.4142C26.0391 21.7893 25.5304 22 25 22H20V31C20 31.2652 20.1054 31.5196 20.2929 31.7071C20.4804 31.8946 20.7348 32 21 32H59C59.2652 32 59.5196 31.8946 59.7071 31.7071C59.8946 31.5196 60 31.2652 60 31V5C60 4.73478 59.8946 4.48043 59.7071 4.29289C59.5196 4.10536 59.2652 4 59 4V4ZM53 26H43C42.7348 26 42.4804 25.8946 42.2929 25.7071C42.1054 25.5196 42 25.2652 42 25C42 24.7348 42.1054 24.4804 42.2929 24.2929C42.4804 24.1054 42.7348 24 43 24H53C53.2652 24 53.5196 24.1054 53.7071 24.2929C53.8946 24.4804 54 24.7348 54 25C54 25.2652 53.8946 25.5196 53.7071 25.7071C53.5196 25.8946 53.2652 26 53 26ZM53 19H29C28.7348 19 28.4804 18.8946 28.2929 18.7071C28.1054 18.5196 28 18.2652 28 18C28 17.7348 28.1054 17.4804 28.2929 17.2929C28.4804 17.1054 28.7348 17 29 17H53C53.2652 17 53.5196 17.1054 53.7071 17.2929C53.8946 17.4804 54 17.7348 54 18C54 18.2652 53.8946 18.5196 53.7071 18.7071C53.5196 18.8946 53.2652 19 53 19ZM53 12H27C26.7348 12 26.4804 11.8946 26.2929 11.7071C26.1054 11.5196 26 11.2652 26 11C26 10.7348 26.1054 10.4804 26.2929 10.2929C26.4804 10.1054 26.7348 10 27 10H53C53.2652 10 53.5196 10.1054 53.7071 10.2929C53.8946 10.4804 54 10.7348 54 11C54 11.2652 53.8946 11.5196 53.7071 11.7071C53.5196 11.8946 53.2652 12 53 12Z" fill="black"/>
</svg>
