<svg width="64" height="64" viewBox="0 0 64 64" fill="none" xmlns="http://www.w3.org/2000/svg">
<path d="M50.83 39.76L40 37.21V33.21C42.3175 31.4005 43.9532 28.8589 44.64 26H45C45.8729 25.9911 46.719 25.6968 47.4091 25.1621C48.0992 24.6275 48.5954 23.8817 48.822 23.0386C49.0487 22.1955 48.9933 21.3015 48.6643 20.4929C48.3353 19.6842 47.7508 19.0054 47 18.56V16C47 12.0218 45.4196 8.20644 42.6066 5.3934C39.7936 2.58035 35.9782 1 32 1C28.0218 1 24.2064 2.58035 21.3934 5.3934C18.5804 8.20644 17 12.0218 17 16V18.56C16.2492 19.0054 15.6647 19.6842 15.3357 20.4929C15.0067 21.3015 14.9513 22.1955 15.178 23.0386C15.4046 23.8817 15.9008 24.6275 16.5909 25.1621C17.281 25.6968 18.1271 25.9911 19 26H19.36C20.0427 28.8662 21.6787 31.4154 24 33.23V37.23L13.17 39.76C11.4156 40.1723 9.85173 41.1648 8.73188 42.5769C7.61203 43.989 7.00178 45.7378 7 47.54V57C7 57.2652 7.10536 57.5196 7.29289 57.7071C7.48043 57.8946 7.73478 58 8 58H9V63H11V58H17V63H19V49H17V56H9V47.54C9.00034 46.1871 9.45787 44.8741 10.2983 43.814C11.1388 42.7539 12.3129 42.0089 13.63 41.7L23 39.5V50.14C22.0573 50.3834 21.2358 50.9622 20.6894 51.768C20.143 52.5738 19.9092 53.5512 20.0319 54.517C20.1546 55.4828 20.6253 56.3707 21.3558 57.0143C22.0863 57.6579 23.0264 58.013 24 58.013C24.9736 58.013 25.9137 57.6579 26.6442 57.0143C27.3747 56.3707 27.8454 55.4828 27.9681 54.517C28.0908 53.5512 27.857 52.5738 27.3106 51.768C26.7642 50.9622 25.9427 50.3834 25 50.14V39.63L31.21 47.63C31.3035 47.7504 31.4233 47.8479 31.5602 47.915C31.6971 47.982 31.8475 48.0169 32 48.0169C32.1525 48.0169 32.3029 47.982 32.4398 47.915C32.5767 47.8479 32.6965 47.7504 32.79 47.63L39.4 39.14L50.4 41.72C51.7082 42.0339 52.873 42.7784 53.7072 43.8339C54.5415 44.8894 54.9968 46.1946 55 47.54V56H47V49H45V63H47V58H53V63H55V58H56C56.2652 58 56.5196 57.8946 56.7071 57.7071C56.8946 57.5196 57 57.2652 57 57V47.54C56.9982 45.7378 56.388 43.989 55.2681 42.5769C54.1483 41.1648 52.5844 40.1723 50.83 39.76ZM43 18.59L39.59 22H24.41L21 18.59V18C25.0865 17.7853 28.9729 16.1636 32 13.41C35.0267 16.1643 38.9133 17.7861 43 18V18.59ZM25 31.48V24H39V31.48C37.0295 33.1056 34.5545 33.9947 32 33.9947C29.4455 33.9947 26.9705 33.1056 25 31.48V31.48ZM41 29.3V23.41L43 21.41V23C43.0041 25.2568 42.3051 27.4588 41 29.3V29.3ZM45 24V20C45.5304 20 46.0391 20.2107 46.4142 20.5858C46.7893 20.9609 47 21.4696 47 22C47 22.5304 46.7893 23.0391 46.4142 23.4142C46.0391 23.7893 45.5304 24 45 24ZM19 16C19 12.5522 20.3696 9.24558 22.8076 6.80761C25.2456 4.36964 28.5522 3 32 3C35.4478 3 38.7544 4.36964 41.1924 6.80761C43.6304 9.24558 45 12.5522 45 16V17C45 16.7348 44.8946 16.4804 44.7071 16.2929C44.5196 16.1054 44.2652 16 44 16C41.8982 16.0039 39.8166 15.5894 37.8766 14.7808C35.9365 13.9722 34.1768 12.7855 32.7 11.29C32.4967 11.1095 32.2317 11.014 31.96 11.0233C31.6883 11.0326 31.4305 11.146 31.24 11.34C29.7691 12.8233 28.0179 13.9992 26.0882 14.7993C24.1585 15.5993 22.0889 16.0075 20 16C19.7348 16 19.4804 16.1054 19.2929 16.2929C19.1054 16.4804 19 16.7348 19 17V16ZM19 24C18.4696 24 17.9609 23.7893 17.5858 23.4142C17.2107 23.0391 17 22.5304 17 22C17 21.4696 17.2107 20.9609 17.5858 20.5858C17.9609 20.2107 18.4696 20 19 20V23C19 23.34 19 23.67 19.05 24H19ZM21 23V21.41L23 23.41V29.3C21.6949 27.4588 20.9959 25.2568 21 23V23ZM26 54C26 54.3956 25.8827 54.7822 25.6629 55.1111C25.4432 55.44 25.1308 55.6964 24.7654 55.8478C24.3999 55.9991 23.9978 56.0387 23.6098 55.9616C23.2219 55.8844 22.8655 55.6939 22.5858 55.4142C22.3061 55.1345 22.1156 54.7781 22.0384 54.3902C21.9613 54.0022 22.0009 53.6001 22.1522 53.2346C22.3036 52.8692 22.56 52.5568 22.8889 52.3371C23.2178 52.1173 23.6044 52 24 52C24.5304 52 25.0391 52.2107 25.4142 52.5858C25.7893 52.9609 26 53.4696 26 54ZM32 45.37L26 37.66V34.52C27.8505 35.4923 29.9096 36.0003 32 36.0003C34.0904 36.0003 36.1495 35.4923 38 34.52V37.66L32 45.37Z" fill="black"/>
</svg>
