<svg width="64" height="64" viewBox="0 0 64 64" fill="none" xmlns="http://www.w3.org/2000/svg">
<path d="M32 5C17.1 5 5 17.1 5 32C5 46.9 17.1 59 32 59C46.9 59 59 46.9 59 32C59 17.1 46.9 5 32 5ZM32 57C18.2 57 7 45.8 7 32C7 18.2 18.2 7 32 7C45.8 7 57 18.2 57 32C57 45.8 45.8 57 32 57Z" fill="#231F20"/>
<path d="M32 13C29.2 13 27 15.2 27 18C27 20.8 29.2 23 32 23C34.8 23 37 20.8 37 18C37 15.2 34.8 13 32 13ZM32 21C30.3 21 29 19.7 29 18C29 16.3 30.3 15 32 15C33.7 15 35 16.3 35 18C35 19.7 33.7 21 32 21ZM32 25C29.2 25 27 27.2 27 30V46C27 48.8 29.2 51 32 51C34.8 51 37 48.8 37 46V30C37 27.2 34.8 25 32 25ZM35 46C35 47.7 33.7 49 32 49C30.3 49 29 47.7 29 46V30C29 28.3 30.3 27 32 27C33.7 27 35 28.3 35 30V46Z" fill="#231F20"/>
</svg>
