<svg width="512" height="512" viewBox="0 0 512 512" fill="none" xmlns="http://www.w3.org/2000/svg">
<g clip-path="url(#clip0_14368_84322)">
<path d="M499.22 437.51L433.68 372C430.257 368.577 425.849 366.312 421.073 365.521C416.297 364.73 411.394 365.454 407.05 367.59L384.87 345.41C418.093 302.172 433.621 247.914 428.302 193.646C422.983 139.379 397.216 89.1677 356.231 53.2034C315.245 17.239 262.111 -1.78427 207.613 -0.00577126C153.114 1.77273 101.334 24.2198 62.7802 62.7798C24.3075 101.35 1.93425 153.103 0.192839 207.553C-1.54857 262.003 17.4721 315.079 53.4015 356.029C89.331 396.98 139.483 422.742 193.697 428.097C247.911 433.452 302.133 417.999 345.38 384.87L367.56 407.05C365.428 411.397 364.709 416.302 365.505 421.078C366.302 425.853 368.573 430.26 372 433.68L437.54 499.22C445.763 507.211 456.8 511.645 468.266 511.563C479.732 511.482 490.705 506.891 498.813 498.783C506.921 490.675 511.512 479.702 511.594 468.236C511.676 456.77 507.242 445.732 499.25 437.51H499.22ZM341.29 369L341.09 369.18C301.436 401.687 250.797 417.697 199.662 413.893C148.527 410.088 100.815 386.761 66.4073 348.743C31.9998 310.725 13.5336 260.93 14.8335 209.67C16.1335 158.411 37.0999 109.615 73.3902 73.3898C109.64 37.2281 158.395 16.371 209.582 15.127C260.77 13.8831 310.48 32.3472 348.444 66.7053C386.407 101.063 409.724 148.69 413.578 199.748C417.431 250.806 401.527 301.393 369.15 341.06L368.93 341.32C364.81 346.32 360.43 351.143 355.79 355.79C351.15 360.436 346.317 364.84 341.29 369ZM357 375.26C360.21 372.4 363.36 369.46 366.42 366.4C369.48 363.34 372.42 360.19 375.28 356.98L395.57 377.28L377.3 395.55L357 375.26ZM488.61 488.61C483.238 493.974 475.957 496.988 468.365 496.988C460.773 496.988 453.492 493.974 448.12 488.61L382.58 423.07C381.043 421.529 380.18 419.441 380.18 417.265C380.18 415.088 381.043 413.001 382.58 411.46L411.46 382.58C413.001 381.043 415.089 380.18 417.265 380.18C419.442 380.18 421.529 381.043 423.07 382.58L488.61 448.12C493.975 453.492 496.988 460.773 496.988 468.365C496.988 475.957 493.975 483.238 488.61 488.61V488.61ZM296.08 161H265.08V149.47C265.075 143.878 262.853 138.516 258.902 134.559C254.951 130.602 249.592 128.373 244 128.36H185.2C179.603 128.365 174.237 130.591 170.279 134.549C166.321 138.506 164.095 143.873 164.09 149.47V161H133.09C127.837 161.002 122.8 163.09 119.085 166.805C115.371 170.519 113.283 175.557 113.28 180.81V281C113.283 286.254 115.37 291.292 119.085 295.008C122.799 298.724 127.836 300.814 133.09 300.82H296.09C301.343 300.812 306.379 298.721 310.093 295.005C313.806 291.29 315.895 286.253 315.9 281V180.81C315.895 175.556 313.805 170.519 310.089 166.804C306.372 163.09 301.334 161.002 296.08 161V161ZM179.08 149.47C179.083 147.85 179.727 146.298 180.873 145.152C182.018 144.007 183.571 143.362 185.19 143.36H244C245.62 143.362 247.172 144.007 248.318 145.152C249.463 146.298 250.108 147.85 250.11 149.47V161H179.11L179.08 149.47ZM300.9 281C300.9 282.278 300.392 283.504 299.488 284.408C298.585 285.312 297.359 285.82 296.08 285.82H133.08C131.804 285.817 130.58 285.308 129.678 284.405C128.777 283.501 128.27 282.276 128.27 281V217.4L192.07 245.17V250.05C192.075 253.894 193.605 257.579 196.323 260.297C199.041 263.015 202.726 264.544 206.57 264.55H222.57C226.414 264.544 230.099 263.015 232.817 260.297C235.536 257.579 237.065 253.894 237.07 250.05V245.17L300.9 217.4V281ZM207.09 249.55V234.55H222.09V249.55H207.09ZM300.9 201L236.23 229.14C235.226 226.325 233.377 223.888 230.935 222.164C228.494 220.441 225.579 219.513 222.59 219.51H206.59C203.606 219.53 200.7 220.468 198.268 222.199C195.836 223.929 193.997 226.367 193 229.18L128.29 201V180.81C128.293 179.535 128.8 178.313 129.702 177.412C130.603 176.51 131.825 176.002 133.1 176H296.1C297.377 176 298.601 176.506 299.505 177.408C300.409 178.31 300.918 179.533 300.92 180.81L300.9 201ZM337.79 91.3898C269.86 23.4598 159.32 23.4598 91.3902 91.3898C58.7155 124.064 40.3591 168.381 40.3591 214.59C40.3591 260.799 58.7155 305.115 91.3902 337.79C124.065 370.464 168.381 388.821 214.59 388.821C260.799 388.821 305.116 370.464 337.79 337.79C353.969 321.611 366.803 302.404 375.559 281.265C384.315 260.127 388.822 237.47 388.822 214.59C388.822 191.709 384.315 169.053 375.559 147.914C366.803 126.776 353.969 107.569 337.79 91.3898V91.3898ZM327.19 327.19C301.141 353.245 266.863 369.462 230.197 373.078C193.53 376.693 156.745 367.483 126.109 347.017C95.4721 326.55 72.8799 296.094 62.1815 260.838C51.4832 225.581 53.3407 187.706 67.4375 153.666C81.5344 119.625 106.998 91.5259 139.49 74.1555C171.983 56.7852 209.493 51.2186 245.629 58.4044C281.765 65.5901 314.292 85.0834 337.667 113.563C361.042 142.042 373.819 177.746 373.82 214.59C373.848 235.505 369.743 256.219 361.74 275.542C353.738 294.866 341.996 312.418 327.19 327.19Z" fill="black"/>
</g>
<defs>
<clipPath id="clip0_14368_84322">
<rect width="512" height="512" fill="white"/>
</clipPath>
</defs>
</svg>
