<svg width="48" height="48" viewBox="0 0 48 48" fill="none" xmlns="http://www.w3.org/2000/svg">
<path d="M34 20H32C32 17.8783 31.1571 15.8434 29.6569 14.3431C28.1566 12.8429 26.1217 12 24 12V10C26.6522 10 29.1957 11.0536 31.0711 12.9289C32.9464 14.8043 34 17.3478 34 20ZM41 37C41 37.7956 40.6839 38.5587 40.1213 39.1213C39.5587 39.6839 38.7956 40 38 40H30.92C30.6677 41.6545 29.8309 43.1639 28.5614 44.2545C27.2919 45.3451 25.6736 45.9447 24 45.9447C22.3264 45.9447 20.7081 45.3451 19.4386 44.2545C18.1691 43.1639 17.3323 41.6545 17.08 40H10C9.20435 40 8.44129 39.6839 7.87868 39.1213C7.31607 38.5587 7 37.7956 7 37C7 36.2044 7.31607 35.4413 7.87868 34.8787C8.44129 34.3161 9.20435 34 10 34V20C10.0036 16.4625 11.3462 13.0576 13.7579 10.4696C16.1696 7.8817 19.4716 6.30267 23 6.05V2H25V6.05C28.5284 6.30267 31.8304 7.8817 34.2421 10.4696C36.6538 13.0576 37.9964 16.4625 38 20V34C38.7956 34 39.5587 34.3161 40.1213 34.8787C40.6839 35.4413 41 36.2044 41 37ZM12 34H36V20C36 16.8174 34.7357 13.7652 32.4853 11.5147C30.2348 9.26428 27.1826 8 24 8C20.8174 8 17.7652 9.26428 15.5147 11.5147C13.2643 13.7652 12 16.8174 12 20V34ZM28.9 40H19.1C19.3295 41.1303 19.9427 42.1465 20.8357 42.8764C21.7288 43.6063 22.8466 44.005 24 44.005C25.1534 44.005 26.2712 43.6063 27.1643 42.8764C28.0573 42.1465 28.6705 41.1303 28.9 40V40ZM39 37C39 36.7348 38.8946 36.4804 38.7071 36.2929C38.5196 36.1054 38.2652 36 38 36H10C9.73478 36 9.48043 36.1054 9.29289 36.2929C9.10536 36.4804 9 36.7348 9 37C9 37.2652 9.10536 37.5196 9.29289 37.7071C9.48043 37.8946 9.73478 38 10 38H38C38.2652 38 38.5196 37.8946 38.7071 37.7071C38.8946 37.5196 39 37.2652 39 37Z" fill="black"/>
</svg>
