<svg width="512" height="512" viewBox="0 0 512 512" fill="none" xmlns="http://www.w3.org/2000/svg">
<path d="M311.377 38H71.8382C58.5866 38.0482 45.8957 43.3529 36.5516 52.7494C27.2076 62.1459 21.9741 74.8664 22.0002 88.118V353.868C21.9705 356.459 22.9549 358.958 24.7432 360.833L131.492 470.906C132.413 471.874 133.52 472.646 134.745 473.178C135.971 473.709 137.291 473.989 138.627 474H311.377C338.947 474 361 451.452 361 423.882V88.118C361 60.548 338.947 38 311.377 38ZM129 439.223L55.4812 364H118.627C124.141 364 129 368.354 129 373.868V439.223ZM341 423.882C341.04 427.797 340.309 431.682 338.847 435.315C337.386 438.947 335.224 442.256 332.483 445.053C329.743 447.85 326.479 450.08 322.877 451.615C319.275 453.15 315.405 453.96 311.49 454H149V373.868C149 357.326 135.169 344 118.627 344H42.0002V88.118C41.9688 80.1691 45.0934 72.5326 50.6879 66.8857C56.2824 61.2387 63.8893 58.0429 71.8382 58H311.377C319.284 58.0505 326.846 61.2394 332.402 66.8654C337.957 72.4913 341.05 80.0936 341.001 88V423.882H341Z" fill="black"/>
<path d="M289.787 168H99.5869C96.9347 168 94.3912 169.054 92.5158 170.929C90.6405 172.804 89.5869 175.348 89.5869 178C89.5869 180.652 90.6405 183.196 92.5158 185.071C94.3912 186.946 96.9347 188 99.5869 188H289.787C292.439 188 294.983 186.946 296.858 185.071C298.733 183.196 299.787 180.652 299.787 178C299.787 175.348 298.733 172.804 296.858 170.929C294.983 169.054 292.439 168 289.787 168V168Z" fill="black"/>
<path d="M289.787 228H99.5869C96.9347 228 94.3912 229.054 92.5158 230.929C90.6405 232.804 89.5869 235.348 89.5869 238C89.5869 240.652 90.6405 243.196 92.5158 245.071C94.3912 246.946 96.9347 248 99.5869 248H289.787C292.439 248 294.983 246.946 296.858 245.071C298.733 243.196 299.787 240.652 299.787 238C299.787 235.348 298.733 232.804 296.858 230.929C294.983 229.054 292.439 228 289.787 228V228Z" fill="black"/>
<path d="M289.787 288H99.5869C96.9347 288 94.3912 289.054 92.5158 290.929C90.6405 292.804 89.5869 295.348 89.5869 298C89.5869 300.652 90.6405 303.196 92.5158 305.071C94.3912 306.946 96.9347 308 99.5869 308H289.787C292.439 308 294.983 306.946 296.858 305.071C298.733 303.196 299.787 300.652 299.787 298C299.787 295.348 298.733 292.804 296.858 290.929C294.983 289.054 292.439 288 289.787 288V288Z" fill="black"/>
<path d="M99.5869 132H187.4C190.052 132 192.596 130.946 194.471 129.071C196.346 127.196 197.4 124.652 197.4 122C197.4 119.348 196.346 116.804 194.471 114.929C192.596 113.054 190.052 112 187.4 112H99.5869C96.9347 112 94.3912 113.054 92.5158 114.929C90.6405 116.804 89.5869 119.348 89.5869 122C89.5869 124.652 90.6405 127.196 92.5158 129.071C94.3912 130.946 96.9347 132 99.5869 132Z" fill="black"/>
<path d="M445.45 47.8208C433.655 47.8359 422.348 52.5259 414.005 60.8632C405.661 69.2004 400.964 80.505 400.94 92.2998L400.74 394.3C400.739 395.908 401.126 397.493 401.868 398.92L436.579 465.679C437.424 467.302 438.697 468.663 440.262 469.613C441.826 470.563 443.621 471.065 445.451 471.065C447.281 471.065 449.076 470.563 450.641 469.613C452.205 468.663 453.479 467.302 454.323 465.679L489.034 398.92C489.776 397.493 490.163 395.908 490.162 394.3L489.962 92.2998C489.939 80.5048 485.24 69.2 476.897 60.8627C468.554 52.5255 457.245 47.8356 445.45 47.8208V47.8208ZM470 149H420.9L420.906 139H469.991L470 149ZM470.014 169L470.155 384H420.747L420.89 169H470.014ZM445.452 67.8208C451.948 67.8298 458.176 70.4136 462.77 75.006C467.365 79.5983 469.951 85.8247 469.963 92.3208L469.98 119H420.923L420.94 92.3178C420.953 85.8221 423.54 79.5963 428.135 75.0045C432.729 70.4128 438.957 67.8295 445.452 67.8208V67.8208ZM445.452 439.082L427.211 404H463.691L445.452 439.082Z" fill="black"/>
</svg>
