<svg width="32" height="32" viewBox="0 0 32 32" fill="none" xmlns="http://www.w3.org/2000/svg">
<path d="M22.606 17.599C24.613 18.569 26 20.621 26 23V29.5C26 29.776 25.776 30 25.5 30H6.5C6.224 30 6 29.776 6 29.5V23C6 20.621 7.387 18.569 9.394 17.599C9.609 17.495 9.87 17.572 10.01 17.765L15 24.625V21.309L14.067 19.731C13.876 19.408 14.109 19 14.484 19H17.517C17.892 19 18.125 19.408 17.934 19.731L17 21.309V24.625L21.989 17.764C22.13 17.572 22.391 17.495 22.606 17.599ZM25 11C25 12.582 24.583 14.139 23.795 15.501C23.617 15.81 23.287 16 22.93 16H20.111C19.836 16.305 19.443 16.5 19 16.5C18.172 16.5 17.5 15.828 17.5 15C17.5 14.172 18.172 13.5 19 13.5C19.443 13.5 19.836 13.695 20.111 14H22.326C22.769 13.068 23 12.042 23 11C23 7.14 19.86 4 16 4C12.804 4 10.017 6.158 9.221 9.249C9.18 9.406 9 10.139 9 10.139C9 10.139 9 12.364 9 12.892C9 13.445 8.552 13.897 8 13.897C6.86 13.897 6 13.081 6 11.999V9.999C6 9.073 6.633 8.291 7.489 8.065C8.728 4.461 12.131 2 16 2C20.962 2 25 6.038 25 11Z" fill="black"/>
<path d="M22 11C22 11.402 21.959 11.805 21.88 12.198C21.771 12.74 21.242 13.092 20.702 12.98C20.16 12.87 19.81 12.342 19.92 11.801C19.973 11.539 20 11.269 20 11C20 10.608 19.926 10.237 19.82 9.879C18.579 9.627 17.818 8.965 17.407 8.069C16.706 9.222 15.449 10 14 10H12.142C12.058 10.322 12 10.653 12 11C12 12.895 13.345 14.544 15.199 14.921C15.74 15.03 16.09 15.559 15.98 16.1C15.871 16.638 15.345 16.991 14.801 16.88C12.019 16.315 10 13.842 10 11C10 7.691 12.691 5 16 5C19.309 5 22 7.691 22 11Z" fill="black"/>
</svg>
