<svg width="32" height="32" viewBox="0 0 32 32" fill="none" xmlns="http://www.w3.org/2000/svg">
<path d="M4.99951 2V29.9985H19.0535C19.5663 29.9989 20.0722 29.88 20.5311 29.6512C20.9901 29.4224 21.3895 29.09 21.6979 28.6803L26.9984 21.6298V2H4.99951ZM5.99946 2.99995H25.9984V21.1494L18.9929 24.3856C19.0659 24.3847 19.1389 24.3873 19.2117 24.3934C19.2156 24.3934 19.2195 24.3934 19.2234 24.3934C19.2286 24.394 19.2338 24.3947 19.239 24.3953C19.8158 24.451 20.3504 24.7217 20.7367 25.1537C21.1229 25.5856 21.3325 26.1471 21.3236 26.7264C21.3148 27.3058 21.0882 27.8606 20.6889 28.2805C20.2896 28.7005 19.7469 28.9547 19.1687 28.9927C19.1622 28.9934 19.1557 28.9941 19.1492 28.9947C19.1173 28.9967 19.0854 28.998 19.0535 28.9986H5.99946V2.99995ZM24.8989 22.7587L22.3209 26.1843C22.3041 26.0758 22.2819 25.9683 22.2545 25.862C22.2545 25.8614 22.2545 25.8607 22.2545 25.8601C22.247 25.8353 22.2391 25.8105 22.231 25.7859C22.1787 25.5992 22.1101 25.4176 22.026 25.2429C22.0253 25.2423 22.0247 25.2416 22.024 25.241C21.9761 25.1421 21.9233 25.0456 21.8658 24.9519C21.7495 24.7645 21.6147 24.5891 21.4635 24.4285C21.4455 24.4094 21.4273 24.3905 21.4088 24.3719L24.8989 22.7587Z" fill="black"/>
<path d="M13.9657 7.49326C13.8837 7.49912 13.8045 7.52503 13.735 7.5688C13.6654 7.61257 13.6078 7.67287 13.5671 7.74423L10.9097 12.1732L9.34478 10.4828C9.3017 10.4294 9.24809 10.3854 9.18729 10.3536C9.12649 10.3218 9.0598 10.3028 8.99137 10.2979C8.92293 10.293 8.85422 10.3023 8.78951 10.3251C8.7248 10.3479 8.66546 10.3837 8.61521 10.4304C8.56495 10.4771 8.52484 10.5337 8.49738 10.5965C8.46991 10.6594 8.45568 10.7273 8.45557 10.7959C8.45545 10.8646 8.46946 10.9324 8.49672 10.9954C8.52397 11.0583 8.56389 11.115 8.614 11.1619L10.6292 13.3395C10.6818 13.3968 10.7471 13.441 10.8198 13.4687C10.8926 13.4963 10.9707 13.5065 11.0481 13.4986C11.1256 13.4908 11.2001 13.465 11.2657 13.4232C11.3314 13.3815 11.3864 13.3249 11.4264 13.2582L14.4307 8.26083C14.4811 8.18212 14.5084 8.09096 14.5096 7.99751C14.5107 7.90407 14.4857 7.81217 14.4373 7.73224C14.3888 7.6523 14.319 7.58752 14.2356 7.54527C14.1523 7.50302 14.0587 7.48493 13.9657 7.49314V7.49326Z" fill="black"/>
<path d="M23.9222 3.36498C23.7981 3.37219 23.681 3.42541 23.594 3.51424C23.507 3.60308 23.4562 3.72115 23.4515 3.84543L23.4046 4.67351L22.5863 4.68718C22.5171 4.68216 22.4477 4.69159 22.3823 4.71487C22.317 4.73815 22.2572 4.77478 22.2067 4.82243C22.1563 4.87007 22.1163 4.92768 22.0894 4.99161C22.0624 5.05553 22.0491 5.12437 22.0502 5.19373C22.0513 5.2631 22.0668 5.33148 22.0957 5.39453C22.1247 5.45758 22.1664 5.51391 22.2183 5.55995C22.2702 5.60599 22.3311 5.64072 22.3972 5.66194C22.4632 5.68317 22.533 5.69041 22.602 5.68322L23.35 5.6715L23.2953 6.6363C23.2866 6.70426 23.2921 6.77327 23.3112 6.83905C23.3304 6.90483 23.3628 6.96597 23.4066 7.01869C23.4503 7.0714 23.5045 7.11456 23.5656 7.14549C23.6267 7.17641 23.6936 7.19445 23.762 7.19847C23.8303 7.20249 23.8988 7.19242 23.9632 7.16887C24.0275 7.14533 24.0863 7.10881 24.136 7.06159C24.1856 7.01437 24.225 6.95746 24.2517 6.89438C24.2785 6.8313 24.2919 6.76339 24.2913 6.69489L24.3499 5.65393L25.26 5.6383C25.3292 5.64333 25.3987 5.6339 25.464 5.61061C25.5294 5.58733 25.5892 5.5507 25.6396 5.50306C25.69 5.45541 25.73 5.3978 25.757 5.33387C25.7839 5.26995 25.7973 5.20111 25.7962 5.13175C25.7951 5.06238 25.7796 4.994 25.7506 4.93095C25.7217 4.86791 25.6799 4.81157 25.628 4.76553C25.5761 4.7195 25.5152 4.68476 25.4492 4.66354C25.3831 4.64232 25.3134 4.63507 25.2444 4.64226L24.4046 4.65593L24.4476 3.90402C24.4532 3.83296 24.4436 3.76151 24.4194 3.69447C24.3952 3.62742 24.357 3.56633 24.3072 3.51528C24.2575 3.46423 24.1974 3.42441 24.131 3.39849C24.0646 3.37257 23.9934 3.36115 23.9222 3.36498V3.36498ZM20.8403 3.86496C20.8221 3.86461 20.8038 3.86526 20.7856 3.86691C20.7134 3.87435 20.6437 3.89742 20.5813 3.93451C20.5189 3.97161 20.4654 4.02185 20.4243 4.08174C20.4243 4.08174 20.1734 4.45152 19.8853 4.90787C19.5972 5.36426 19.2762 5.87805 19.1178 6.31014C19.0523 6.4889 18.5635 7.3457 18.1217 8.03857C17.6799 8.73139 17.2643 9.33733 17.2643 9.33733C17.2253 9.39202 17.1977 9.45398 17.183 9.51954C17.1684 9.5851 17.167 9.65294 17.179 9.71904C17.191 9.78514 17.2161 9.84816 17.2529 9.90438C17.2897 9.9606 17.3374 10.0089 17.3931 10.0464C17.4489 10.0838 17.5116 10.1097 17.5775 10.1226C17.6435 10.1354 17.7113 10.1349 17.7771 10.121C17.8428 10.1072 17.9051 10.0803 17.9603 10.042C18.0155 10.0036 18.0624 9.95463 18.0983 9.89785C18.0983 9.89785 18.4827 9.31685 18.8795 8.69869C18.9703 8.68355 19.5635 8.58476 20.2544 8.45066C20.6254 8.37885 20.9947 8.30177 21.2876 8.22996C21.3187 8.22192 21.3401 8.2158 21.3696 8.20848C21.6794 9.03011 22.0682 9.79344 22.6527 10.2513C22.7042 10.2946 22.7639 10.3271 22.8283 10.3468C22.8926 10.3664 22.9603 10.3729 23.0272 10.3658C23.0941 10.3587 23.1588 10.3382 23.2176 10.3055C23.2764 10.2728 23.328 10.2286 23.3693 10.1754C23.4106 10.1223 23.4407 10.0614 23.4579 9.99637C23.4751 9.93133 23.479 9.86348 23.4693 9.7969C23.4597 9.73032 23.4367 9.66637 23.4018 9.60888C23.3668 9.55139 23.3206 9.50154 23.266 9.46232C22.8289 9.11991 22.2331 7.78665 21.8793 6.57575C21.5256 5.36482 21.3325 4.28095 21.3325 4.28095C21.3127 4.16471 21.2524 4.05922 21.1624 3.9831C21.0723 3.90698 20.9582 3.86513 20.8403 3.86496V3.86496ZM20.6235 5.62463C20.7197 6.0698 20.7281 6.20521 20.9185 6.85699C20.9577 6.99127 21.0038 7.12867 21.0454 7.26517C20.7841 7.32912 20.4236 7.40037 20.063 7.47024C19.829 7.51559 19.8053 7.51772 19.5963 7.55617C19.7964 7.21932 19.9632 6.9087 20.0552 6.65778C20.1291 6.45634 20.3866 6.01402 20.6235 5.62463Z" fill="black"/>
<path d="M13.9657 13.4943C13.8837 13.5002 13.8045 13.5262 13.735 13.57C13.6654 13.6137 13.6078 13.6739 13.5671 13.7453L10.9097 18.1742L9.34478 16.4839C9.3017 16.4305 9.24809 16.3865 9.18729 16.3547C9.12649 16.3229 9.0598 16.304 8.99137 16.2991C8.92293 16.2942 8.85422 16.3034 8.78951 16.3262C8.7248 16.349 8.66546 16.3848 8.61521 16.4315C8.56495 16.4782 8.52484 16.5348 8.49738 16.5977C8.46991 16.6606 8.45568 16.7284 8.45557 16.797C8.45545 16.8656 8.46946 16.9335 8.49672 16.9964C8.52397 17.0594 8.56389 17.1161 8.614 17.163L10.6292 19.3405C10.6818 19.3978 10.7471 19.4421 10.8198 19.4697C10.8926 19.4974 10.9707 19.5076 11.0481 19.4997C11.1256 19.4918 11.2001 19.466 11.2657 19.4243C11.3314 19.3825 11.3864 19.326 11.4264 19.2592L14.4307 14.2545C14.479 14.1759 14.5046 14.0855 14.5047 13.9933C14.5048 13.901 14.4794 13.8105 14.4312 13.7318C14.3831 13.6531 14.3141 13.5893 14.232 13.5474C14.1498 13.5054 14.0576 13.487 13.9657 13.4942V13.4943ZM13.9657 19.4956C13.8837 19.5014 13.8045 19.5274 13.735 19.5712C13.6654 19.615 13.6078 19.6752 13.5671 19.7465L10.9097 24.1755L9.34478 22.4851C9.3017 22.4317 9.24809 22.3877 9.18729 22.3559C9.12649 22.3241 9.0598 22.3052 8.99137 22.3003C8.92293 22.2954 8.85422 22.3046 8.78951 22.3274C8.7248 22.3502 8.66546 22.386 8.61521 22.4327C8.56495 22.4794 8.52484 22.5361 8.49738 22.5989C8.46991 22.6618 8.45568 22.7296 8.45557 22.7982C8.45545 22.8669 8.46946 22.9347 8.49672 22.9977C8.52397 23.0606 8.56389 23.1173 8.614 23.1642L10.6292 25.3418C10.6818 25.3991 10.7471 25.4433 10.8198 25.471C10.8926 25.4986 10.9707 25.5088 11.0481 25.5009C11.1256 25.4931 11.2001 25.4673 11.2657 25.4255C11.3314 25.3838 11.3864 25.3272 11.4264 25.2605L14.4307 20.2557C14.479 20.1771 14.5046 20.0868 14.5047 19.9945C14.5048 19.9023 14.4794 19.8117 14.4312 19.733C14.3831 19.6543 14.3141 19.5905 14.232 19.5486C14.1498 19.5067 14.0576 19.4882 13.9657 19.4954V19.4956Z" fill="black"/>
</svg>
