<svg width="1024" height="1024" viewBox="0 0 1024 1024" fill="none" xmlns="http://www.w3.org/2000/svg">
<path d="M864.2 596C855 634 840.9 668.2 820.5 701.4C817 707.1 818.2 714.9 822.8 719.6C835.8 732.6 848.9 745.6 861.8 758.6C862.5 759.3 863.2 760.1 863.9 760.8C865.4 762.3 867.7 766.5 868.4 768.8C868.7 769.7 868.9 770.6 869.1 771.5C870.2 775.6 869.1 769.8 869.3 772.3C869.5 774.4 869.5 776.4 869.4 778.5C869.2 781.5 869.3 779.2 869.4 778.6C869.1 780 868.8 781.3 868.4 782.6C868.1 783.5 867.8 784.4 867.5 785.2C868.6 782.5 866.8 786.4 866.6 786.7C866.1 787.5 865.6 788.3 865.1 789.1C862.9 792.5 866.8 787.7 863.8 790.6C863.4 791 863.1 791.4 862.7 791.7C862.2 792.2 861.8 792.6 861.3 793.1C858.9 795.5 856.5 797.9 854.2 800.2C837.8 816.6 821.3 833.1 804.9 849.5C800.5 853.9 796.2 858.4 791.7 862.7C791.3 863.1 790.8 863.5 790.5 863.8C787.4 866.9 791.6 863.2 789.6 864.6C788.6 865.3 787.6 865.9 786.6 866.5C785.8 867 784.9 867.4 784.1 867.8C786.3 866.7 784.3 867.7 783.8 867.9C782.5 868.3 781.1 868.6 779.8 869C776.8 869.9 781.7 869.2 778.3 869.3C776.5 869.4 774.6 869.4 772.8 869.3C768.8 869.2 775.2 870.2 771.3 869C770.4 868.7 769.5 868.6 768.6 868.3C767.7 868 766.8 867.7 766 867.4C768.9 868.5 764.8 866.7 764.5 866.5C763.7 866 762.9 865.5 762.1 865C758.9 862.9 763.3 866.5 760.6 863.7C747 849.9 733.1 836.3 719.4 822.6C714.8 818 706.9 816.8 701.2 820.3C668.2 840.9 634 855 596 864.2C589.6 865.7 585 872.2 585 878.7C585 897.2 585.1 915.8 585 934.3C585 935.6 585 936.8 584.9 938.1C584.8 941.9 585.7 936.9 584.8 938.8C584.4 939.7 584.3 941 584 942C583.8 942.8 583.5 943.7 583.2 944.5C584.2 941.5 582.9 945 582.6 945.7C582.1 946.7 581.5 947.5 580.9 948.5C580.5 949.2 578.6 951.3 580.6 949.1C579.2 950.7 577.7 952.2 576.1 953.6C578.3 951.7 574.8 954.4 573.9 955C572.8 955.7 571.6 956.3 570.5 956.8C572.9 955.7 570.1 956.8 569.2 957.1C568.4 957.3 567.5 957.5 566.6 957.8C562.8 958.9 568.3 957.9 565.9 958C564.7 958 563.6 958.1 562.4 958.2C561.8 958.2 561.1 958.2 560.5 958.2C557.3 958.2 554.1 958.2 550.9 958.2C527.4 958.2 504 958.2 480.5 958.2C474.3 958.2 468 958.3 461.8 958.2C460.9 958.2 459.9 958.1 459 958.1C455.3 958 460.2 958.9 458.3 958C457.4 957.6 456.1 957.5 455.1 957.2C454.3 957 453.4 956.7 452.6 956.4C455.7 957.5 451.9 956 451.4 955.8C450.6 955.4 449.9 955 449.2 954.5C448.8 954.2 445.7 951.7 448.1 953.8C446.5 952.4 445 950.9 443.6 949.3C445.6 951.5 442.4 947.4 441.9 946.5C441.4 945.6 440.9 944.6 440.4 943.6C441.6 946.2 440.6 944.1 440.5 943.5C440.2 942.4 439.9 941.4 439.6 940.3C439.4 939.7 439.3 939 439.2 938.3C439.4 940.1 439.4 940.1 439.2 938.3C438.7 918.5 439.1 898.7 439.1 878.8C439.1 872.4 434.5 865.9 428.1 864.3C390.1 855.1 355.9 841 322.7 820.6C317 817.1 309.2 818.3 304.5 822.9C291.5 835.9 278.5 849 265.5 861.9C264.8 862.6 264 863.3 263.3 864C261.8 865.5 257.6 867.8 255.3 868.5C254.4 868.8 253.5 869 252.6 869.2C248.5 870.3 254.3 869.2 251.8 869.4C249.7 869.6 247.7 869.6 245.6 869.5C242.6 869.3 244.9 869.4 245.5 869.5C244.1 869.2 242.8 868.9 241.5 868.5C240.6 868.2 239.7 867.9 238.9 867.6C241.6 868.7 237.7 866.9 237.4 866.7C236.6 866.2 235.8 865.7 235 865.2C231.6 863 236.4 866.9 233.5 863.9C233.1 863.5 232.7 863.2 232.4 862.8C231.9 862.3 231.5 861.9 231 861.4C228.6 859 226.2 856.6 223.9 854.3C207.5 837.9 191 821.4 174.6 805C170.2 800.6 165.7 796.3 161.4 791.8C161 791.4 160.6 790.9 160.3 790.6C157.2 787.5 160.9 791.7 159.5 789.7C158.8 788.7 158.2 787.7 157.6 786.7C157.1 785.9 156.7 785 156.3 784.2C157.4 786.4 156.4 784.4 156.2 783.9C155.8 782.6 155.5 781.2 155.1 779.9C154.2 776.9 154.9 781.8 154.8 778.4C154.7 776.6 154.7 774.7 154.8 772.9C154.9 768.9 153.9 775.3 155.1 771.4C155.4 770.5 155.5 769.6 155.8 768.7C156.1 767.8 156.4 766.9 156.7 766.1C155.6 769 157.4 764.9 157.6 764.6C158.1 763.8 158.6 763 159.1 762.2C161.2 759 157.6 763.4 160.4 760.7C174.2 747.1 187.8 733.2 201.5 719.5C206.1 714.9 207.3 707 203.8 701.3C183.1 668.2 169 634 159.8 596C158.3 589.6 151.8 585 145.3 585C126.8 585 108.2 585.1 89.7 585C88.4 585 87.2 585 85.9 584.9C82.1 584.8 87.1 585.7 85.2 584.8C84.3 584.4 83 584.3 82 584C81.2 583.8 80.3 583.5 79.5 583.2C82.5 584.2 79 582.9 78.3 582.6C77.3 582.1 76.5 581.5 75.5 580.9C74.8 580.5 72.7 578.6 74.9 580.6C73.3 579.2 71.8 577.7 70.4 576.1C72.3 578.3 69.6 574.8 69 573.9C68.3 572.8 67.7 571.6 67.2 570.5C68.3 572.9 67.2 570.1 66.9 569.2C66.7 568.4 66.5 567.5 66.2 566.6C65.1 562.8 66.1 568.3 66 565.9C66 564.7 65.9 563.6 65.8 562.4C65.8 561.8 65.8 561.1 65.8 560.5C65.8 557.3 65.8 554.1 65.8 550.9C65.8 527.4 65.8 504 65.8 480.5C65.8 474.3 65.7 468 65.8 461.8C65.8 460.9 65.9 459.9 65.9 459C66 455.3 65.1 460.2 66 458.3C66.4 457.4 66.5 456.1 66.8 455.1C67 454.3 67.3 453.4 67.6 452.6C66.5 455.7 68 451.9 68.2 451.4C68.6 450.6 69 449.9 69.5 449.2C69.8 448.8 72.3 445.7 70.2 448.1C71.6 446.5 73.1 445 74.7 443.6C72.5 445.6 76.6 442.4 77.5 441.9C78.4 441.4 79.4 440.9 80.4 440.4C77.8 441.6 79.9 440.6 80.5 440.5C81.6 440.2 82.6 439.9 83.7 439.6C84.3 439.4 85 439.3 85.7 439.2C83.9 439.4 83.9 439.4 85.7 439.2C105.5 438.7 125.3 439.1 145.2 439.1C151.6 439.1 158.1 434.5 159.7 428.1C168.9 390.1 183 355.9 203.4 322.7C206.9 317 205.7 309.2 201.1 304.5C188.1 291.5 175 278.5 162.1 265.5C161.4 264.8 160.7 264 160 263.3C158.5 261.8 156.2 257.6 155.5 255.3C155.2 254.4 155 253.5 154.8 252.6C153.7 248.5 154.8 254.3 154.6 251.8C154.4 249.7 154.4 247.7 154.5 245.6C154.7 242.6 154.6 244.9 154.5 245.5C154.8 244.1 155.1 242.8 155.5 241.5C155.8 240.6 156.1 239.7 156.4 238.9C155.3 241.6 157.1 237.7 157.3 237.4C157.8 236.6 158.3 235.8 158.8 235C161 231.6 157.1 236.4 160.1 233.5C160.5 233.1 160.8 232.7 161.2 232.4C161.7 231.9 162.1 231.5 162.6 231C165 228.6 167.4 226.2 169.7 223.9C186.1 207.5 202.6 191 219 174.6C223.4 170.2 227.7 165.7 232.2 161.4C232.6 161 233.1 160.6 233.4 160.3C236.5 157.2 232.3 160.9 234.3 159.5C235.3 158.8 236.3 158.2 237.3 157.6C238.1 157.1 239 156.7 239.8 156.3C237.6 157.4 239.6 156.4 240.1 156.2C241.4 155.8 242.8 155.5 244.1 155.1C247.1 154.2 242.2 154.9 245.6 154.8C247.4 154.7 249.3 154.7 251.1 154.8C255.1 154.9 248.7 153.9 252.6 155.1C253.5 155.4 254.4 155.5 255.3 155.8C256.2 156.1 257.1 156.4 257.9 156.7C255 155.6 259.1 157.4 259.4 157.6C260.2 158.1 261 158.6 261.8 159.1C265 161.2 260.6 157.6 263.3 160.4C276.9 174.2 290.8 187.8 304.5 201.5C309.1 206.1 317 207.3 322.7 203.8C355.8 183.1 390 169 428 159.8C434.4 158.3 439 151.8 439 145.3C439 126.8 438.9 108.2 439 89.7001C439 88.4001 439 87.2001 439.1 85.9001C439.2 82.1001 438.3 87.1001 439.2 85.2001C439.6 84.3001 439.7 83.0001 440 82.0001C440.2 81.2001 440.5 80.3001 440.8 79.5001C439.8 82.5001 441.1 79.0001 441.4 78.3001C441.9 77.3001 442.5 76.5001 443.1 75.5001C443.5 74.8001 445.4 72.7001 443.4 74.9001C444.8 73.3001 446.3 71.8001 447.9 70.4001C445.7 72.3001 449.2 69.6001 450.1 69.0001C451.2 68.3001 452.4 67.7001 453.5 67.2001C451.1 68.3001 453.9 67.2001 454.8 66.9001C455.6 66.7001 456.5 66.5001 457.4 66.2001C461.2 65.1001 455.7 66.1001 458.1 66.0001C459.3 66.0001 460.4 65.9001 461.6 65.8001C462.2 65.8001 462.9 65.8001 463.5 65.8001C466.7 65.8001 469.9 65.8001 473.1 65.8001C496.6 65.8001 520 65.8001 543.5 65.8001C549.7 65.8001 556 65.7001 562.2 65.8001C563.1 65.8001 564.1 65.9001 565 65.9001C568.7 66.0001 563.8 65.1001 565.7 66.0001C566.6 66.4001 567.9 66.5001 568.9 66.8001C569.7 67.0001 570.6 67.3001 571.4 67.6001C568.3 66.5001 572.1 68.0001 572.6 68.2001C573.4 68.6001 574.1 69.0001 574.8 69.5001C575.2 69.8001 578.3 72.3001 575.9 70.2001C577.5 71.6001 579 73.1001 580.4 74.7001C578.4 72.5001 581.6 76.6001 582.1 77.5001C582.6 78.4001 583.1 79.4001 583.6 80.4001C582.4 77.8001 583.4 79.9001 583.5 80.5001C583.8 81.6001 584.1 82.6001 584.4 83.7001C584.6 84.3001 584.7 85.0001 584.8 85.7001C584.6 83.9001 584.6 83.9001 584.8 85.7001C585.3 105.5 584.9 125.3 584.9 145.2C584.9 151.6 589.5 158.1 595.9 159.7C633.9 168.9 668.1 183 701.3 203.4C707 206.9 714.8 205.7 719.5 201.1C732.5 188.1 745.5 175 758.5 162.1C759.2 161.4 760 160.7 760.7 160C762.2 158.5 766.4 156.2 768.7 155.5C769.6 155.2 770.5 155 771.4 154.8C775.5 153.7 769.7 154.8 772.2 154.6C774.3 154.4 776.3 154.4 778.4 154.5C781.4 154.7 779.1 154.6 778.5 154.5C779.9 154.8 781.2 155.1 782.5 155.5C783.4 155.8 784.3 156.1 785.1 156.4C782.4 155.3 786.3 157.1 786.6 157.3C787.4 157.8 788.2 158.3 789 158.8C792.4 161 787.6 157.1 790.5 160.1C790.9 160.5 791.3 160.8 791.6 161.2C792.1 161.7 792.5 162.1 793 162.6C795.4 165 797.8 167.4 800.1 169.7C816.5 186.1 833 202.6 849.4 219C853.8 223.4 858.3 227.7 862.6 232.2C863 232.6 863.4 233.1 863.7 233.4C866.8 236.5 863.1 232.3 864.5 234.3C865.2 235.3 865.8 236.3 866.4 237.3C866.9 238.1 867.3 239 867.7 239.8C866.6 237.6 867.6 239.6 867.8 240.1C868.2 241.4 868.5 242.8 868.9 244.1C869.8 247.1 869.1 242.2 869.2 245.6C869.3 247.4 869.3 249.3 869.2 251.1C869.1 255.1 870.1 248.7 868.9 252.6C868.6 253.5 868.5 254.4 868.2 255.3C867.9 256.2 867.6 257.1 867.3 257.9C868.4 255 866.6 259.1 866.4 259.4C865.9 260.2 865.4 261 864.9 261.8C862.8 265 866.4 260.6 863.6 263.3C849.8 276.9 836.2 290.8 822.5 304.5C817.9 309.1 816.7 317 820.2 322.7C840.9 355.8 855 390 864.2 428C865.7 434.4 872.2 439 878.7 439C897.2 439 915.8 438.9 934.3 439C935.6 439 936.8 439 938.1 439.1C941.9 439.2 936.9 438.3 938.8 439.2C939.7 439.6 941 439.7 942 440C942.8 440.2 943.7 440.5 944.5 440.8C941.5 439.8 945 441.1 945.7 441.4C946.7 441.9 947.5 442.5 948.5 443.1C949.2 443.5 951.3 445.4 949.1 443.4C950.7 444.8 952.2 446.3 953.6 447.9C951.7 445.7 954.4 449.2 955 450.1C955.7 451.2 956.3 452.4 956.8 453.5C955.7 451.1 956.8 453.9 957.1 454.8C957.3 455.6 957.5 456.5 957.8 457.4C958.9 461.2 957.9 455.7 958 458.1C958 459.3 958.1 460.4 958.2 461.6C958.2 462.2 958.2 462.9 958.2 463.5C958.2 466.7 958.2 469.9 958.2 473.1C958.2 496.6 958.2 520 958.2 543.5C958.2 549.7 958.3 556 958.2 562.2C958.2 563.1 958.1 564.1 958.1 565C958 568.7 958.9 563.8 958 565.7C957.6 566.6 957.5 567.9 957.2 568.9C957 569.7 956.7 570.6 956.4 571.4C957.5 568.3 956 572.1 955.8 572.6C955.4 573.4 955 574.1 954.5 574.8C954.2 575.2 951.7 578.3 953.8 575.9C952.4 577.5 950.9 579 949.3 580.4C951.5 578.4 947.4 581.6 946.5 582.1C945.6 582.6 944.6 583.1 943.6 583.6C946.2 582.4 944.1 583.4 943.5 583.5C942.4 583.8 941.4 584.1 940.3 584.4C939.7 584.6 939 584.7 938.3 584.8C940.1 584.6 940.1 584.6 938.3 584.8C918.5 585.3 898.7 584.9 878.8 584.9C871 584.9 863.4 591.8 863.8 599.9C864.2 608 870.4 614.9 878.8 614.9C897.6 614.9 916.5 615.2 935.3 614.9C957.5 614.6 976.7 601.2 984.8 580.6C988.3 571.6 988.2 562.2 988.2 552.7C988.2 527.9 988.2 503.2 988.2 478.4C988.2 471.9 988.6 465.3 988.1 458.8C986.5 436.1 970.8 415.8 948.3 410.5C936.4 407.7 923.3 408.9 911.2 408.9C900.4 408.9 889.7 408.9 878.9 408.9C883.7 412.6 888.5 416.2 893.4 419.9C883.8 380.3 868 342.1 846.7 307.3C845.9 313.4 845.1 319.4 844.4 325.5C857.7 312.2 871.2 299.1 884.3 285.6C899.9 269.5 904.1 246.2 894.9 225.8C890.9 216.9 884 210.5 877.3 203.7C860 186.4 842.8 169.2 825.5 151.9C821.1 147.5 816.8 142.9 812.2 138.7C794.9 122.7 767.4 119.3 747.5 132.8C737.5 139.5 729.3 149.3 720.9 157.7C713.5 165.1 706.1 172.5 698.7 179.9C704.8 179.1 710.8 178.3 716.9 177.6C682.1 156.3 643.9 140.5 604.3 130.9C608 135.7 611.6 140.5 615.3 145.4C615.3 126.6 615.6 107.7 615.3 88.9001C615 66.7001 601.6 47.5001 581 39.4001C572 35.9001 562.6 36.0001 553.1 36.0001C528.3 36.0001 503.6 36.0001 478.8 36.0001C472.3 36.0001 465.7 35.6001 459.2 36.1001C436.5 37.7001 416.2 53.4001 410.9 75.9001C408.1 87.8001 409.3 100.9 409.3 113C409.3 123.8 409.3 134.5 409.3 145.3C413 140.5 416.6 135.7 420.3 130.8C380.7 140.4 342.5 156.2 307.7 177.5C313.8 178.3 319.8 179.1 325.9 179.8C312.6 166.5 299.5 153 286 139.9C269.9 124.3 246.6 120.1 226.2 129.3C217.3 133.3 210.9 140.2 204.1 146.9C186.8 164.2 169.6 181.4 152.3 198.7C147.9 203.1 143.3 207.4 139.1 212C123.1 229.3 119.7 256.8 133.2 276.7C139.9 286.7 149.7 294.9 158.1 303.3C165.5 310.7 172.9 318.1 180.3 325.5C179.5 319.4 178.7 313.4 178 307.3C156.7 342.1 140.9 380.3 131.3 419.9C136.1 416.2 140.9 412.6 145.8 408.9C127 408.9 108.1 408.6 89.3 408.9C67.1 409.2 47.9 422.6 39.8 443.2C36.3 452.2 36.4 461.6 36.4 471.1C36.4 495.9 36.4 520.6 36.4 545.4C36.4 551.9 36 558.5 36.5 565C38.1 587.7 53.8 608 76.3 613.3C88.2 616.1 101.3 614.9 113.4 614.9C124.2 614.9 134.9 614.9 145.7 614.9C140.9 611.2 136.1 607.6 131.2 603.9C140.8 643.5 156.6 681.7 177.9 716.5C178.7 710.4 179.5 704.4 180.2 698.3C166.9 711.6 153.4 724.7 140.3 738.2C124.7 754.3 120.5 777.6 129.7 798C133.7 806.9 140.6 813.3 147.3 820.1C164.6 837.4 181.8 854.6 199.1 871.9C203.5 876.3 207.8 880.9 212.4 885.1C229.7 901.1 257.2 904.5 277.1 891C287.1 884.3 295.3 874.5 303.7 866.1C311.1 858.7 318.5 851.3 325.9 843.9C319.8 844.7 313.8 845.5 307.7 846.2C342.5 867.5 380.7 883.3 420.3 892.9C416.6 888.1 413 883.3 409.3 878.4C409.3 897.2 409 916.1 409.3 934.9C409.6 957.1 423 976.3 443.6 984.4C452.6 987.9 462 987.8 471.5 987.8C496.3 987.8 521 987.8 545.8 987.8C552.3 987.8 558.9 988.2 565.4 987.7C588.1 986.1 608.4 970.4 613.7 947.9C616.5 936 615.3 922.9 615.3 910.8C615.3 900 615.3 889.3 615.3 878.5C611.6 883.3 608 888.1 604.3 893C643.9 883.4 682.1 867.6 716.9 846.3C710.8 845.5 704.8 844.7 698.7 844C712 857.3 725.1 870.8 738.6 883.9C754.7 899.5 778 903.7 798.4 894.5C807.3 890.5 813.7 883.6 820.5 876.9C837.8 859.6 855 842.4 872.3 825.1C876.7 820.7 881.3 816.4 885.5 811.8C901.5 794.5 904.9 767 891.4 747.1C884.7 737.1 874.9 728.9 866.5 720.5C859.1 713.1 851.7 705.7 844.3 698.3C845.1 704.4 845.9 710.4 846.6 716.5C867.9 681.7 883.7 643.5 893.3 603.9C895.1 596.3 890.9 587.3 882.8 585.4C874.9 583.8 866.2 587.9 864.2 596Z" fill="black"/>
<path d="M674 512C674 516.7 673.8 521.3 673.5 526C673.3 528.1 673.1 530.1 672.9 532.2C672.8 533 672.4 536 672.8 533C672.6 534.4 672.4 535.7 672.2 537.1C670.7 546 668.6 554.8 665.8 563.3C664.6 567.1 663.1 570.8 661.7 574.6C660.1 578.6 662.5 572.9 661.4 575.3C661 576.3 660.5 577.3 660 578.3C659 580.5 657.9 582.7 656.8 584.8C652.9 592.4 648.5 599.7 643.5 606.7C642.2 608.5 640.9 610.2 639.6 612C641.4 609.6 638 613.9 637.5 614.6C634.6 618.1 631.5 621.5 628.3 624.8C625.6 627.6 622.7 630.3 619.8 633C618.2 634.5 616.5 635.9 614.9 637.3C614.2 637.9 613.6 638.4 612.9 639C612.2 639.6 611.5 640.1 610.9 640.6C612 639.7 612.2 639.6 611.3 640.3C604.5 645.5 597.3 650.1 589.9 654.3C586 656.4 582.1 658.4 578.1 660.2C577.3 660.6 576.5 660.9 575.7 661.3C571.8 663.1 577.4 660.6 575 661.6C572.7 662.5 570.5 663.4 568.2 664.2C559.8 667.2 551.1 669.7 542.3 671.4C540.5 671.8 538.7 672.1 536.9 672.4C535.6 672.6 534.2 672.8 532.8 673C533.4 672.9 535.7 672.7 532.7 673C528.1 673.5 523.5 673.9 518.9 674.1C509.6 674.5 500.3 674 491 673C486.6 672.5 492.9 673.3 490.2 672.9C489.1 672.7 487.9 672.6 486.8 672.4C484.8 672.1 482.8 671.7 480.8 671.3C476.2 670.4 471.6 669.3 467 668C463.1 666.9 459.3 665.7 455.5 664.3C453.4 663.5 451.4 662.7 449.3 661.9C446.6 660.8 448.7 661.6 449.2 661.9C447.8 661.3 446.4 660.7 445 660C437.2 656.4 429.7 652.2 422.6 647.5C418.9 645.1 415.4 642.6 411.9 639.9C414.2 641.7 410.6 638.8 409.8 638.2C407.8 636.5 405.8 634.8 403.9 633.1C397.6 627.4 391.7 621.3 386.3 614.7C385.8 614 382.3 609.7 384.2 612.1C382.9 610.4 381.6 608.6 380.3 606.8C377.8 603.2 375.4 599.6 373.1 595.8C370.8 592 368.7 588.2 366.7 584.3C365.8 582.5 364.9 580.7 364.1 578.9C363.6 577.9 363.2 576.9 362.7 575.9C360.9 571.9 363.7 578.7 362.1 574.6C358.8 566.3 356 557.8 354 549.1C353.1 545.1 352.3 541.1 351.6 537.1C351.4 536 351.2 534.8 351.1 533.7C350.7 531.1 351.5 537.3 351 532.9C350.7 530.4 350.5 527.9 350.3 525.3C349.6 516.2 349.6 507.1 350.4 498.1C350.6 495.8 350.8 493.5 351.1 491.2C351.4 488.2 351.2 490.5 351.1 491.1C351.3 490 351.4 488.8 351.6 487.7C352.4 483 353.3 478.3 354.4 473.7C356.5 465.2 359.2 457 362.5 448.9C363.5 446.5 361 452.1 362.8 448.2C363.2 447.4 363.5 446.6 363.9 445.8C364.8 443.8 365.8 441.8 366.8 439.8C368.8 435.9 370.9 432 373.2 428.3C375.5 424.6 377.9 420.9 380.4 417.3C381.5 415.7 382.7 414.1 383.9 412.5C385.4 410.5 381.7 415.2 384.4 411.9C385.2 410.9 386 409.9 386.9 408.9C392.5 402.2 398.6 396 405.1 390.2C406.6 388.9 408.1 387.6 409.6 386.4C410.3 385.9 414.5 382.4 412.2 384.3C415.7 381.6 419.2 379.1 422.9 376.7C430.2 371.9 438 367.6 445.9 364C446.9 363.5 447.9 363.1 448.9 362.6C451.3 361.6 445.6 363.9 449.6 362.3C451.5 361.6 453.3 360.8 455.2 360.1C459.6 358.5 464.1 357.1 468.6 355.8C472.5 354.7 476.4 353.8 480.4 353C482.6 352.5 484.9 352.1 487.1 351.8C488 351.7 488.9 351.5 489.8 351.4C491.6 351.1 491.6 351.1 489.9 351.4C490.6 351.3 491.3 351.2 491.9 351.2C500.9 350.2 510 349.8 519.1 350.2C523.7 350.4 528.3 350.8 532.9 351.3C533.5 351.4 535.9 351.7 533 351.3C534.1 351.5 535.3 351.6 536.4 351.8C538.9 352.2 541.3 352.6 543.8 353.1C552.6 354.9 561.2 357.4 569.6 360.5C571.3 361.1 572.9 361.8 574.6 362.4C578.7 364 571.9 361.1 575.9 363C576.7 363.4 577.5 363.7 578.3 364.1C582.3 365.9 586.2 367.9 590.1 370C597.8 374.2 605.1 379 612 384.4C609.7 382.6 612 384.4 612.6 384.9C613.4 385.6 614.3 386.3 615.1 387C616.6 388.3 618.1 389.5 619.5 390.9C622.9 394 626.2 397.1 629.4 400.4C632.1 403.2 634.7 406.2 637.2 409.2C637.9 410 638.6 410.9 639.3 411.7C639.8 412.3 641.6 414.6 639.8 412.3C641.3 414.2 642.7 416.1 644.1 418.1C649 425.1 653.4 432.4 657.3 440.1C658.3 442.1 659.2 444.1 660.2 446.1C660.6 446.9 660.9 447.7 661.3 448.5C663.1 452.5 660.3 445.7 661.9 449.8C663.5 453.9 665.1 458.1 666.4 462.3C669.1 470.7 671.1 479.2 672.5 487.9C672.7 489 672.9 490.2 673 491.3C672.6 488.4 672.9 490.8 673 491.4C673.2 493.7 673.5 496 673.7 498.3C673.8 502.7 674 507.3 674 512C674 519.8 680.9 527.4 689 527C697.1 526.6 704 520.4 704 512C703.8 472.6 691.8 433.2 668.7 401.2C645.8 369.3 614.3 345.2 577.4 331.5C503 303.9 415.2 327.6 364.7 388.8C339 419.9 323.6 457.7 320.4 498C317.4 537.1 327 577.2 347.2 610.8C367 643.6 396.8 670.7 431.8 686.5C469.2 703.3 510.6 708.1 550.9 700C627.3 684.7 689.5 620.1 701.3 542.9C702.9 532.6 703.8 522.3 703.9 512C703.9 504.2 697 496.6 688.9 497C680.8 497.4 674 503.6 674 512Z" fill="black"/>
</svg>
