<svg width="32" height="32" viewBox="0 0 32 32" fill="none" xmlns="http://www.w3.org/2000/svg">
<g clip-path="url(#clip0_14368_84289)">
<path d="M14.5 25H11.5C11.3674 25 11.2402 25.0527 11.1464 25.1464C11.0527 25.2402 11 25.3674 11 25.5V28.5C11 28.6326 11.0527 28.7598 11.1464 28.8536C11.2402 28.9473 11.3674 29 11.5 29H14.5C14.6326 29 14.7598 28.9473 14.8536 28.8536C14.9473 28.7598 15 28.6326 15 28.5V25.5C15 25.3674 14.9473 25.2402 14.8536 25.1464C14.7598 25.0527 14.6326 25 14.5 25ZM14 28H12V26H14V28ZM24 28.653C24.0392 28.7312 24.0983 28.7978 24.1713 28.8461C24.2443 28.8943 24.3287 28.9226 24.416 28.928H24.447C24.5293 28.928 24.6104 28.9076 24.683 28.8687C24.7555 28.8298 24.8174 28.7736 24.863 28.705L26.863 25.705C26.8994 25.6504 26.9248 25.5891 26.9375 25.5247C26.9503 25.4603 26.9502 25.394 26.9374 25.3296C26.9245 25.2652 26.8991 25.2039 26.8626 25.1494C26.826 25.0948 26.7791 25.0479 26.7245 25.0115C26.6699 24.9751 26.6086 24.9497 26.5442 24.937C26.4798 24.9242 26.4135 24.9243 26.3491 24.9371C26.2847 24.95 26.2234 24.9754 26.1689 25.0119C26.1143 25.0485 26.0674 25.0954 26.031 25.15L24.509 27.433L23.9 26.206C23.8407 26.0873 23.7367 25.997 23.6109 25.955C23.4851 25.913 23.3477 25.9227 23.229 25.982C23.1103 26.0413 23.02 26.1453 22.978 26.2711C22.936 26.3969 22.9457 26.5343 23.005 26.653L24 28.653ZM23.5 23H26.5C26.6326 23 26.7598 22.9473 26.8536 22.8536C26.9473 22.7598 27 22.6326 27 22.5V19.5C27 19.3674 26.9473 19.2402 26.8536 19.1464C26.7598 19.0527 26.6326 19 26.5 19H23.5C23.3674 19 23.2402 19.0527 23.1464 19.1464C23.0527 19.2402 23 19.3674 23 19.5V22.5C23 22.6326 23.0527 22.7598 23.1464 22.8536C23.2402 22.9473 23.3674 23 23.5 23ZM24 20H26V22H24V20ZM23.5 17H26.5C26.6326 17 26.7598 16.9473 26.8536 16.8536C26.9473 16.7598 27 16.6326 27 16.5V13.5C27 13.3674 26.9473 13.2402 26.8536 13.1464C26.7598 13.0527 26.6326 13 26.5 13H23.5C23.3674 13 23.2402 13.0527 23.1464 13.1464C23.0527 13.2402 23 13.3674 23 13.5V16.5C23 16.6326 23.0527 16.7598 23.1464 16.8536C23.2402 16.9473 23.3674 17 23.5 17ZM24 14H26V16H24V14ZM5.5 23H8.5C8.63261 23 8.75979 22.9473 8.85355 22.8536C8.94732 22.7598 9 22.6326 9 22.5V19.5C9 19.3674 8.94732 19.2402 8.85355 19.1464C8.75979 19.0527 8.63261 19 8.5 19H5.5C5.36739 19 5.24021 19.0527 5.14645 19.1464C5.05268 19.2402 5 19.3674 5 19.5V22.5C5 22.6326 5.05268 22.7598 5.14645 22.8536C5.24021 22.9473 5.36739 23 5.5 23ZM6 20H8V22H6V20ZM5.5 29H8.5C8.63261 29 8.75979 28.9473 8.85355 28.8536C8.94732 28.7598 9 28.6326 9 28.5V25.5C9 25.3674 8.94732 25.2402 8.85355 25.1464C8.75979 25.0527 8.63261 25 8.5 25H5.5C5.36739 25 5.24021 25.0527 5.14645 25.1464C5.05268 25.2402 5 25.3674 5 25.5V28.5C5 28.6326 5.05268 28.7598 5.14645 28.8536C5.24021 28.9473 5.36739 29 5.5 29ZM6 26H8V28H6V26ZM5.5 17H8.5C8.63261 17 8.75979 16.9473 8.85355 16.8536C8.94732 16.7598 9 16.6326 9 16.5V13.5C9 13.3674 8.94732 13.2402 8.85355 13.1464C8.75979 13.0527 8.63261 13 8.5 13H5.5C5.36739 13 5.24021 13.0527 5.14645 13.1464C5.05268 13.2402 5 13.3674 5 13.5V16.5C5 16.6326 5.05268 16.7598 5.14645 16.8536C5.24021 16.9473 5.36739 17 5.5 17ZM6 14H8V16H6V14ZM27.5 4H27V2C27 1.46957 26.7893 0.960859 26.4142 0.585786C26.0391 0.210714 25.5304 0 25 0C24.4696 0 23.9609 0.210714 23.5858 0.585786C23.2107 0.960859 23 1.46957 23 2V4H9V2C9 1.46957 8.78929 0.960859 8.41421 0.585786C8.03914 0.210714 7.53043 0 7 0C6.46957 0 5.96086 0.210714 5.58579 0.585786C5.21071 0.960859 5 1.46957 5 2V4H4.5C3.83696 4 3.20107 4.26339 2.73223 4.73223C2.26339 5.20107 2 5.83696 2 6.5V29.5C2 30.163 2.26339 30.7989 2.73223 31.2678C3.20107 31.7366 3.83696 32 4.5 32H27.5C28.163 32 28.7989 31.7366 29.2678 31.2678C29.7366 30.7989 30 30.163 30 29.5V6.5C30 5.83696 29.7366 5.20107 29.2678 4.73223C28.7989 4.26339 28.163 4 27.5 4ZM24 2C24 1.73478 24.1054 1.48043 24.2929 1.29289C24.4804 1.10536 24.7348 1 25 1C25.2652 1 25.5196 1.10536 25.7071 1.29289C25.8946 1.48043 26 1.73478 26 2V6C26 6.26522 25.8946 6.51957 25.7071 6.70711C25.5196 6.89464 25.2652 7 25 7C24.7348 7 24.4804 6.89464 24.2929 6.70711C24.1054 6.51957 24 6.26522 24 6V2ZM6 2C6 1.73478 6.10536 1.48043 6.29289 1.29289C6.48043 1.10536 6.73478 1 7 1C7.26522 1 7.51957 1.10536 7.70711 1.29289C7.89464 1.48043 8 1.73478 8 2V6C8 6.26522 7.89464 6.51957 7.70711 6.70711C7.51957 6.89464 7.26522 7 7 7C6.73478 7 6.48043 6.89464 6.29289 6.70711C6.10536 6.51957 6 6.26522 6 6V2ZM29 29.5C29 29.8978 28.842 30.2794 28.5607 30.5607C28.2794 30.842 27.8978 31 27.5 31H4.5C4.10218 31 3.72064 30.842 3.43934 30.5607C3.15804 30.2794 3 29.8978 3 29.5V11H29V29.5ZM29 10H3V6.5C3 6.10218 3.15804 5.72064 3.43934 5.43934C3.72064 5.15804 4.10218 5 4.5 5H5V6C5 6.53043 5.21071 7.03914 5.58579 7.41421C5.96086 7.78929 6.46957 8 7 8C7.53043 8 8.03914 7.78929 8.41421 7.41421C8.78929 7.03914 9 6.53043 9 6V5H23V6C23 6.53043 23.2107 7.03914 23.5858 7.41421C23.9609 7.78929 24.4696 8 25 8C25.5304 8 26.0391 7.78929 26.4142 7.41421C26.7893 7.03914 27 6.53043 27 6V5H27.5C27.8978 5 28.2794 5.15804 28.5607 5.43934C28.842 5.72064 29 6.10218 29 6.5V10ZM12 16.653C12.0392 16.7312 12.0983 16.7978 12.1713 16.8461C12.2443 16.8943 12.3287 16.9226 12.416 16.928H12.447C12.5293 16.928 12.6104 16.9076 12.683 16.8687C12.7555 16.8298 12.8174 16.7736 12.863 16.705L14.863 13.705C14.8994 13.6504 14.9248 13.5891 14.9375 13.5247C14.9503 13.4603 14.9502 13.394 14.9374 13.3296C14.9245 13.2652 14.8991 13.2039 14.8626 13.1494C14.826 13.0948 14.7791 13.0479 14.7245 13.0115C14.6699 12.9751 14.6086 12.9497 14.5442 12.937C14.4798 12.9242 14.4135 12.9243 14.3491 12.9371C14.2847 12.95 14.2234 12.9754 14.1689 13.0119C14.1143 13.0485 14.0674 13.0954 14.031 13.15L12.509 15.433L11.9 14.206C11.8706 14.1472 11.83 14.0948 11.7804 14.0518C11.7308 14.0087 11.6732 13.9758 11.6109 13.955C11.5486 13.9342 11.4828 13.9259 11.4173 13.9305C11.3517 13.9352 11.2878 13.9526 11.229 13.982C11.1702 14.0114 11.1178 14.052 11.0748 14.1016C11.0317 14.1512 10.9988 14.2088 10.978 14.2711C10.9572 14.3334 10.9489 14.3992 10.9535 14.4647C10.9582 14.5303 10.9756 14.5942 11.005 14.653L12 16.653ZM17.5 17H20.5C20.6326 17 20.7598 16.9473 20.8536 16.8536C20.9473 16.7598 21 16.6326 21 16.5V13.5C21 13.3674 20.9473 13.2402 20.8536 13.1464C20.7598 13.0527 20.6326 13 20.5 13H17.5C17.3674 13 17.2402 13.0527 17.1464 13.1464C17.0527 13.2402 17 13.3674 17 13.5V16.5C17 16.6326 17.0527 16.7598 17.1464 16.8536C17.2402 16.9473 17.3674 17 17.5 17ZM18 14H20V16H18V14ZM17.5 29H20.5C20.6326 29 20.7598 28.9473 20.8536 28.8536C20.9473 28.7598 21 28.6326 21 28.5V25.5C21 25.3674 20.9473 25.2402 20.8536 25.1464C20.7598 25.0527 20.6326 25 20.5 25H17.5C17.3674 25 17.2402 25.0527 17.1464 25.1464C17.0527 25.2402 17 25.3674 17 25.5V28.5C17 28.6326 17.0527 28.7598 17.1464 28.8536C17.2402 28.9473 17.3674 29 17.5 29ZM18 26H20V28H18V26ZM17.5 23H20.5C20.6326 23 20.7598 22.9473 20.8536 22.8536C20.9473 22.7598 21 22.6326 21 22.5V19.5C21 19.3674 20.9473 19.2402 20.8536 19.1464C20.7598 19.0527 20.6326 19 20.5 19H17.5C17.3674 19 17.2402 19.0527 17.1464 19.1464C17.0527 19.2402 17 19.3674 17 19.5V22.5C17 22.6326 17.0527 22.7598 17.1464 22.8536C17.2402 22.9473 17.3674 23 17.5 23ZM18 20H20V22H18V20ZM14.5 19H11.5C11.3674 19 11.2402 19.0527 11.1464 19.1464C11.0527 19.2402 11 19.3674 11 19.5V22.5C11 22.6326 11.0527 22.7598 11.1464 22.8536C11.2402 22.9473 11.3674 23 11.5 23H14.5C14.6326 23 14.7598 22.9473 14.8536 22.8536C14.9473 22.7598 15 22.6326 15 22.5V19.5C15 19.3674 14.9473 19.2402 14.8536 19.1464C14.7598 19.0527 14.6326 19 14.5 19ZM14 22H12V20H14V22Z" fill="black"/>
</g>
<defs>
<clipPath id="clip0_14368_84289">
<rect width="32" height="32" fill="white"/>
</clipPath>
</defs>
</svg>
